<?xml version="1.0" standalone="no"?>
<!DOCTYPE svg PUBLIC "-//W3C//DTD SVG 20010904//EN"
 "http://www.w3.org/TR/2001/REC-SVG-20010904/DTD/svg10.dtd">
<svg version="1.0" xmlns="http://www.w3.org/2000/svg"
 width="342.000000pt" height="85.000000pt" viewBox="0 0 342.000000 85.000000"
 preserveAspectRatio="xMidYMid meet">

<g transform="translate(0.000000,85.000000) scale(0.100000,-0.100000)"
fill="#d7603e" stroke="none">
<path d="M530 425 l405 -405 160 0 160 0 -405 405 -405 405 -160 0 -160 0 405
-405z"/>
<path d="M940 622 l0 -207 98 -98 c53 -53 101 -97 105 -97 4 0 7 89 7 197 l0
198 298 -298 297 -297 160 0 160 0 -405 405 -405 405 -157 0 -158 0 0 -208z"/>
<path d="M1780 425 l405 -405 157 0 158 0 0 203 0 202 -105 105 -105 105 0
-200 0 -200 -298 298 -297 297 -160 0 -160 0 405 -405z"/>
<path d="M2590 425 l405 -405 160 0 160 0 -405 405 -405 405 -160 0 -160 0
405 -405z"/>
<path d="M3100 572 l0 -257 98 -98 c53 -53 101 -97 105 -97 4 0 7 160 7 355
l0 355 -105 0 -105 0 0 -258z"/>
<path d="M130 377 l0 -357 105 0 105 0 0 253 0 252 -105 105 -105 105 0 -358z"/>
</g>
</svg>
